<?xml version="1.0" encoding="utf-8"?>
<!-- Generator: Adobe Illustrator 26.0.0, SVG Export Plug-In . SVG Version: 6.00 Build 0)  -->
<svg version="1.1" id="Layer_1" xmlns="http://www.w3.org/2000/svg" xmlns:xlink="http://www.w3.org/1999/xlink" x="0px" y="0px"
	 viewBox="0 0 24 24" style="enable-background:new 0 0 24 24;" xml:space="preserve">
<style type="text/css">
	.st0{stroke:#2A2C51;stroke-linejoin:round;stroke-miterlimit:10;}
	.st1{fill:#B1A256;}
	.st2{fill:#333333;}
</style>
<g>
	<g>
		<path class="st1" d="M17.5,16c-1.38,0-2.5-1.12-2.5-2.5c0-1.38,1.12-2.5,2.5-2.5s2.5,1.12,2.5,2.5C20,14.88,18.88,16,17.5,16z
			 M17.5,12c-0.83,0-1.5,0.67-1.5,1.5s0.67,1.5,1.5,1.5s1.5-0.67,1.5-1.5S18.33,12,17.5,12z"/>
	</g>
	<g>
		<path class="st2" d="M6.5,10h-4C2.22,10,2,9.78,2,9.5S2.22,9,2.5,9h4C6.78,9,7,9.22,7,9.5S6.78,10,6.5,10z"/>
	</g>
	<g>
		<path class="st2" d="M11.5,10h-3C8.22,10,8,9.78,8,9.5S8.22,9,8.5,9h3C11.78,9,12,9.22,12,9.5S11.78,10,11.5,10z"/>
	</g>
	<path class="st2" d="M18,8.03V1.5C18,0.67,17.33,0,16.5,0H7.91c-0.4,0-0.78,0.16-1.06,0.44L0.44,6.85C0.16,7.14,0,7.51,0,7.91V22.5
		C0,23.33,0.67,24,1.5,24h13v-0.01c0.11,0,0.23-0.03,0.32-0.1l2.68-2.23l2.68,2.23C20.27,23.96,20.38,24,20.5,24
		c0.07,0,0.14-0.02,0.21-0.05C20.89,23.87,21,23.69,21,23.5v-5.76c1.22-1.01,2-2.54,2-4.24C23,10.64,20.8,8.28,18,8.03z M8,3h6.5
		C14.78,3,15,3.22,15,3.5v1C15,4.78,14.78,5,14.5,5H8V3z M7,1.71V6.5C7,6.78,6.78,7,6.5,7H1.71L7,1.71z M14,23H1.5
		C1.22,23,1,22.78,1,22.5V8h5.5C7.33,8,8,7.33,8,6.5V6h6.5C15.33,6,16,5.33,16,4.5v-1C16,2.67,15.33,2,14.5,2H8V1h8.5
		C16.78,1,17,1.22,17,1.5v6.53C15.09,8.2,13.47,9.37,12.63,11H8.5C7.67,11,7,11.67,7,12.5v2C7,15.33,7.67,16,8.5,16h4.13
		c0.18,0.35,0.39,0.69,0.64,1H3.5C2.67,17,2,17.67,2,18.5v2C2,21.33,2.67,22,3.5,22H14V23z M12.23,15H8.5C8.22,15,8,14.78,8,14.5v-2
		C8,12.22,8.22,12,8.5,12h3.73C12.1,12.48,12,12.98,12,13.5C12,14.02,12.09,14.52,12.23,15z M14,21H3.5C3.22,21,3,20.78,3,20.5v-2
		C3,18.22,3.22,18,3.5,18H14V21z M20,22.43l-2.18-1.82c-0.19-0.15-0.46-0.15-0.64,0L15,22.43v-4.04c0.75,0.39,1.6,0.61,2.5,0.61
		s1.75-0.22,2.5-0.61V22.43z M17.5,18c-2.48,0-4.5-2.02-4.5-4.5S15.02,9,17.5,9s4.5,2.02,4.5,4.5S19.98,18,17.5,18z"/>
	<g>
		<path class="st2" d="M5.5,12h-3C2.22,12,2,11.78,2,11.5S2.22,11,2.5,11h3C5.78,11,6,11.22,6,11.5S5.78,12,5.5,12z"/>
	</g>
	<g>
		<path class="st2" d="M5.5,14h-3C2.22,14,2,13.78,2,13.5S2.22,13,2.5,13h3C5.78,13,6,13.22,6,13.5S5.78,14,5.5,14z"/>
	</g>
	<g>
		<path class="st2" d="M5.5,16h-3C2.22,16,2,15.78,2,15.5S2.22,15,2.5,15h3C5.78,15,6,15.22,6,15.5S5.78,16,5.5,16z"/>
	</g>
	<g>
		<path class="st2" d="M13.5,8h-4C9.22,8,9,7.78,9,7.5S9.22,7,9.5,7h4C13.78,7,14,7.22,14,7.5S13.78,8,13.5,8z"/>
	</g>
</g>
</svg>
