<?xml version="1.0" encoding="utf-8"?>
<!-- Generator: Adobe Illustrator 26.0.0, SVG Export Plug-In . SVG Version: 6.00 Build 0)  -->
<svg version="1.1" id="Layer_1" xmlns="http://www.w3.org/2000/svg" xmlns:xlink="http://www.w3.org/1999/xlink" x="0px" y="0px"
	 viewBox="0 0 24 24" style="enable-background:new 0 0 24 24;" xml:space="preserve">
<style type="text/css">
	.st0{stroke:#2A2C51;stroke-linejoin:round;stroke-miterlimit:10;}
	.st1{fill:#B1A256;}
	.st2{fill:#333333;}
</style>
<g>
	<path class="st2" d="M23.36,13.35c-0.4-0.28-0.92-0.35-1.38-0.18L21,13.53V1.5C21,0.67,20.33,0,19.5,0h-2C16.67,0,16,0.67,16,1.5V3
		h-2.5C12.67,3,12,3.67,12,4.5V8H9.5C8.67,8,8,8.67,8,9.5v5.21l-3,0.67v-0.26c0-0.57-0.32-1.09-0.83-1.34l-1.21-0.6
		C2.81,12.5,2.21,12,1.5,12h-1C0.22,12,0,12.22,0,12.5v11C0,23.78,0.22,24,0.5,24h1c0.71,0,1.31-0.5,1.46-1.17l1.21-0.6
		c0.47-0.24,0.77-0.7,0.81-1.22l4.78,2.78C10,23.93,10.27,24,10.53,24c0.24,0,0.48-0.06,0.7-0.18l11.97-6.45
		c0.5-0.25,0.8-0.76,0.8-1.32v-1.47C24,14.09,23.76,13.63,23.36,13.35z M2,22.5C2,22.78,1.78,23,1.5,23H1V13h0.5
		C1.78,13,2,13.22,2,13.5V22.5z M4,20.88c0,0.19-0.11,0.36-0.28,0.45L3,21.69v-7.38l0.72,0.36C3.89,14.76,4,14.93,4,15.12V20.88z
		 M17,1.5C17,1.22,17.22,1,17.5,1h2C19.78,1,20,1.22,20,1.5v12.4L17,15V1.5z M13,4.5C13,4.22,13.22,4,13.5,4H16v11.37l-1.44,0.53
		l-0.32-1.13c-0.17-0.59-0.67-0.99-1.24-1.07V4.5z M9,9.5C9,9.22,9.22,9,9.5,9H12v4.82l-3,0.67V9.5z M23,16.05
		c0,0.19-0.1,0.35-0.27,0.44l-11.99,6.46c-0.14,0.08-0.32,0.08-0.47-0.02L5,19.86V16.4l7.69-1.71c0.26-0.05,0.52,0.1,0.59,0.35
		l0.46,1.6c0.04,0.13,0.02,0.27-0.05,0.39c-0.07,0.12-0.18,0.2-0.31,0.23l-3,0.75c-0.27,0.07-0.43,0.34-0.36,0.61
		C10.07,18.85,10.28,19,10.5,19c0.04,0,0.08,0,0.12-0.01l3-0.75c0.4-0.1,0.73-0.35,0.93-0.71c0.11-0.2,0.17-0.41,0.19-0.63
		l7.58-2.79c0.16-0.06,0.33-0.04,0.47,0.06c0.13,0.09,0.21,0.24,0.21,0.41V16.05z"/>
	<path class="st1" d="M16,3h-2.5C12.67,3,12,3.67,12,4.5V8l0,0.43v0.21c0,0,0.01,0.16,0,0.18L12,9v4.82c0.07,0,0.45-0.12,0.52-0.13
		c0.21-0.02,0.29-0.04,0.54,0.02c0.01-0.01-0.01,0.01,0,0c-0.02-0.01-0.04-0.09-0.06-0.09V4.5C13,4.22,13.22,4,13.5,4H16v11.37
		L17,15V2.99C16.66,2.99,16,3,16,3L16,3"/>
</g>
</svg>
