<?xml version="1.0" encoding="utf-8"?>
<!-- Generator: Adobe Illustrator 26.0.0, SVG Export Plug-In . SVG Version: 6.00 Build 0)  -->
<svg version="1.1" id="Layer_1" xmlns="http://www.w3.org/2000/svg" xmlns:xlink="http://www.w3.org/1999/xlink" x="0px" y="0px"
	 viewBox="0 0 24 24" style="enable-background:new 0 0 24 24;" xml:space="preserve">
<style type="text/css">
	.st0{stroke:#2A2C51;stroke-linejoin:round;stroke-miterlimit:10;}
	.st1{fill:#B1A256;}
	.st2{fill:#333333;}
</style>
<g>
	<path class="st1" d="M11.5,14c-0.28,0-0.5-0.22-0.5-0.5s0.22-0.5,0.5-0.5h1c0.28,0,0.5-0.22,0.5-0.5S12.78,12,12.5,12H12v-0.5
		c0-0.28-0.22-0.5-0.5-0.5S11,11.22,11,11.5v0.59c-0.58,0.21-1,0.76-1,1.41c0,0.83,0.67,1.5,1.5,1.5c0.28,0,0.5,0.22,0.5,0.5
		S11.78,16,11.5,16h-1c-0.28,0-0.5,0.22-0.5,0.5s0.22,0.5,0.5,0.5H11v0.5c0,0.28,0.22,0.5,0.5,0.5s0.5-0.22,0.5-0.5v-0.59
		c0.58-0.21,1-0.76,1-1.41C13,14.67,12.33,14,11.5,14z"/>
	<path class="st2" d="M21,18c-0.85,0-1.61,0.35-2.15,0.92l-2.55-1.74c0.45-0.79,0.7-1.71,0.7-2.68c0-0.62-0.11-1.21-0.3-1.77
		l1.77-0.79C18.92,12.58,19.66,13,20.5,13c1.38,0,2.5-1.12,2.5-2.5S21.88,8,20.5,8c-0.15,0-0.29,0.02-0.43,0.04L19.51,6.6
		C19.81,6.33,20,5.94,20,5.5C20,4.67,19.33,4,18.5,4S17,4.67,17,5.5S17.67,7,18.5,7c0.03,0,0.06-0.01,0.09-0.01l0.55,1.42
		C18.46,8.85,18,9.62,18,10.5c0,0.18,0.02,0.36,0.06,0.53l-1.76,0.79C15.36,10.14,13.56,9,11.5,9c-1.47,0-2.8,0.58-3.79,1.52
		L6.43,9.4C6.79,8.85,7,8.2,7,7.5c0-0.58-0.15-1.12-0.4-1.6L8.8,4.32C9.25,4.74,9.84,5,10.5,5c1.35,0,2.44-1.07,2.49-2.41l2.2-0.37
		C15.45,2.68,15.94,3,16.5,3C17.33,3,18,2.33,18,1.5S17.33,0,16.5,0c-0.74,0-1.35,0.53-1.47,1.24l-2.2,0.37
		C12.46,0.67,11.56,0,10.5,0C9.12,0,8,1.12,8,2.5c0,0.36,0.08,0.7,0.22,1.01l-2.2,1.57C5.39,4.42,4.49,4,3.5,4C1.57,4,0,5.57,0,7.5
		S1.57,11,3.5,11c0.87,0,1.65-0.33,2.26-0.85l1.29,1.13C6.39,12.18,6,13.29,6,14.5c0,1.06,0.31,2.04,0.82,2.88l-1.67,1.26
		C4.71,18.25,4.14,18,3.5,18C2.12,18,1,19.12,1,20.5S2.12,23,3.5,23S6,21.88,6,20.5c0-0.38-0.09-0.74-0.25-1.06l1.67-1.25
		C8.43,19.29,9.88,20,11.5,20c1.7,0,3.22-0.78,4.23-1.99l2.55,1.74C18.11,20.13,18,20.55,18,21c0,1.65,1.35,3,3,3s3-1.35,3-3
		S22.65,18,21,18z M18,5.5C18,5.22,18.22,5,18.5,5S19,5.22,19,5.5S18.78,6,18.5,6S18,5.78,18,5.5z M20.5,9c0.83,0,1.5,0.67,1.5,1.5
		S21.33,12,20.5,12S19,11.33,19,10.5S19.67,9,20.5,9z M16.5,1C16.78,1,17,1.22,17,1.5S16.78,2,16.5,2S16,1.78,16,1.5S16.22,1,16.5,1
		z M10.5,1C11.33,1,12,1.67,12,2.5S11.33,4,10.5,4S9,3.33,9,2.5S9.67,1,10.5,1z M3.5,22C2.67,22,2,21.33,2,20.5S2.67,19,3.5,19
		S5,19.67,5,20.5S4.33,22,3.5,22z M3.5,10C2.12,10,1,8.88,1,7.5S2.12,5,3.5,5S6,6.12,6,7.5S4.88,10,3.5,10z M11.5,19
		C9.02,19,7,16.98,7,14.5S9.02,10,11.5,10s4.5,2.02,4.5,4.5S13.98,19,11.5,19z M21,23c-1.1,0-2-0.9-2-2s0.9-2,2-2s2,0.9,2,2
		S22.1,23,21,23z"/>
</g>
</svg>
